<?xml version="1.0" encoding="utf-8"?>
<!-- Generator: Adobe Illustrator 26.0.0, SVG Export Plug-In . SVG Version: 6.00 Build 0)  -->
<svg version="1.2" baseProfile="tiny" id="Ebene_1" xmlns="http://www.w3.org/2000/svg" xmlns:xlink="http://www.w3.org/1999/xlink"
	 x="0px" y="0px" viewBox="0 0 245.9 83.2" overflow="visible" xml:space="preserve">
<path fill="#FFFFFF" d="M99.8,63.1C99.8,63.1,99.8,63.1,99.8,63.1c0-0.3,0.1-0.6,0.1-0.9c0-1,0-2,0-3.1c0-0.5,0-0.9-0.1-1.4
	c0-0.4,0-0.8,0-1.2c0,0,0,0,0,0c-0.4-7.6-1.6-14.9-3.6-21.9h0c-0.1-0.2-0.1-0.4-0.2-0.5c-0.1-0.5-0.3-1-0.4-1.4
	c-0.2-0.5-0.3-1-0.5-1.5c-0.2-0.5-0.3-0.9-0.5-1.4c-0.2-0.5-0.4-1-0.6-1.5c-0.2-0.5-0.3-0.9-0.5-1.4c-0.2-0.5-0.4-1-0.6-1.6
	c-0.2-0.4-0.4-0.9-0.5-1.3c-0.2-0.5-0.5-1.1-0.7-1.6c-0.2-0.4-0.4-0.8-0.6-1.2c-0.3-0.6-0.5-1.1-0.8-1.7c-0.2-0.4-0.4-0.8-0.6-1.1
	c-0.3-0.6-0.7-1.3-1-1.9c-0.2-0.3-0.3-0.6-0.5-0.9c-0.5-0.9-1-1.9-1.6-2.8c-1-1.5-2.1-2.4-3.6-2.8c0,0,0,0,0,0c-0.1,0-0.2,0-0.3-0.1
	c-0.4-0.1-0.9-0.2-1.4-0.2c-1,0-2,0-3.1,0c-0.5,0-1,0-1.5,0.1c-0.4,0-0.8,0-1.1,0c0,0,0,0,0,0c-7.6,0.4-14.9,1.6-21.9,3.6v0
	c-0.2,0-0.3,0.1-0.5,0.2c-0.5,0.2-1.1,0.3-1.6,0.5c-0.5,0.1-0.9,0.3-1.4,0.4c-0.5,0.2-1,0.3-1.5,0.5c-0.5,0.2-0.9,0.3-1.4,0.5
	c-0.5,0.2-1,0.4-1.5,0.6c-0.5,0.2-1,0.4-1.4,0.6c-0.5,0.2-1,0.4-1.4,0.6c-0.5,0.2-1,0.4-1.5,0.6c-0.5,0.2-0.9,0.4-1.4,0.6
	c-0.5,0.2-1,0.5-1.5,0.7c-0.4,0.2-0.9,0.4-1.3,0.6c-0.6,0.3-1.1,0.6-1.7,0.9c-0.4,0.2-0.8,0.4-1.2,0.6c-0.8,0.4-1.6,0.9-2.5,1.4
	c-0.1,0.1-0.2,0.1-0.3,0.2c-1.3,0.8-2.1,1.8-2.6,2.9C29,25.9,29,26,29,26c-0.1,0.2-0.1,0.3-0.2,0.5c-0.1,0.5-0.2,1-0.2,1.5
	c0,0.1,0,0.1,0,0.1c0,0,0,0,0,0c0,0,0,0,0,0c0,7.2,0.6,14,2,20.7c1.7,8.1,4.4,15.8,8.3,23.5c0.9,1.8,1.9,3.6,2.9,5.4
	c0.8,1.3,1.7,2.1,2.8,2.6c0.7,0.3,1.6,0.5,2.5,0.5c0.6,0,1.1,0,1.7,0c17.4-0.2,32.7-4.4,47.9-13.3C98.6,66.5,99.5,65.1,99.8,63.1
	C99.8,63.2,99.8,63.1,99.8,63.1z"/>
<path fill="#B61F29" d="M244.1,37.3c0-0.4,0-0.8,0-1.2c0-0.4-0.1-0.7-0.1-1c-0.2-0.1-0.5-0.1-0.8-0.1c-0.4,0-0.7,0-1,0
	c-1.4,0-2.6,0.4-3.5,1.1c-0.9,0.7-1.7,1.5-2.4,2.4c0-0.2-0.1-0.5-0.1-0.8c0-0.3-0.1-0.6-0.2-0.9c-0.1-0.3-0.1-0.6-0.2-0.9
	c-0.1-0.3-0.2-0.5-0.2-0.6c-0.4-0.1-0.8-0.2-1.2-0.2c-0.4-0.1-0.9-0.1-1.3-0.1c-0.5,0-0.9,0-1.3,0.1c-0.4,0-0.8,0.1-1.2,0.2v22.7
	c0.6,0.1,1.1,0.1,1.6,0.2c0.5,0,1,0,1.5,0c0.5,0,1,0,1.5,0c0.5,0,1.1-0.1,1.6-0.2V47.1c0-1.6,0.2-2.8,0.5-3.7c0.4-0.9,0.8-1.5,1.4-2
	c0.6-0.4,1.1-0.7,1.8-0.8c0.6-0.1,1.2-0.2,1.7-0.2h0.7c0.4,0,0.8,0,1.1,0.1c0.1-0.5,0.2-1.1,0.2-1.7
	C244.1,38.3,244.1,37.8,244.1,37.3"/>
<path fill="#B61F29" d="M225.2,45.5c0-1.5-0.2-2.9-0.7-4.3c-0.4-1.3-1.1-2.5-2-3.4c-0.9-1-1.9-1.7-3.1-2.3c-1.2-0.6-2.6-0.8-4.2-0.8
	c-1.8,0-3.4,0.3-4.8,0.9c-1.4,0.6-2.5,1.5-3.4,2.6c-0.9,1.1-1.6,2.4-2.1,3.8c-0.5,1.5-0.7,3-0.7,4.7c0,1.7,0.2,3.3,0.7,4.7
	c0.5,1.4,1.2,2.7,2.1,3.7c1,1,2.2,1.8,3.7,2.4c1.5,0.6,3.3,0.9,5.4,0.9c2.9,0,5.4-0.4,7.7-1.3c0-0.9-0.2-1.8-0.4-2.6
	c-0.2-0.8-0.5-1.5-0.8-2.1c-0.9,0.4-1.9,0.6-3,0.8c-1,0.2-2.1,0.3-3,0.3c-1.8,0-3.3-0.4-4.4-1.2c-1.1-0.8-1.7-2.1-1.8-3.8H225
	c0.1-0.3,0.1-0.8,0.2-1.3C225.2,46.6,225.2,46,225.2,45.5 M219.4,44.1h-8.9c0.1-1.5,0.6-2.6,1.4-3.5c0.8-0.8,1.9-1.2,3.3-1.2
	c1.3,0,2.3,0.4,3,1.3C218.9,41.5,219.3,42.7,219.4,44.1"/>
<path fill="#B61F29" d="M201.5,57c0-0.2,0-0.5,0-0.8c0-0.5,0-1-0.1-1.6c-0.1-0.6-0.2-1.2-0.4-1.7c-0.3,0.1-0.7,0.1-1.1,0.2
	c-0.4,0.1-0.9,0.1-1.3,0.1c-0.6,0-1-0.1-1.4-0.2c-0.4-0.1-0.8-0.3-1-0.7c-0.3-0.3-0.5-0.8-0.6-1.3c-0.1-0.6-0.2-1.3-0.2-2.2v-8.9
	h5.3c0.1-0.5,0.1-0.9,0.2-1.3c0-0.4,0-0.8,0-1.2c0-0.4,0-0.7,0-1.1c0-0.3-0.1-0.7-0.2-1.2h-5.3v-6.6h-1L186,39l0.2,0.9h2.8v10.3
	c0,2.8,0.7,4.8,2.1,6.1c1.4,1.2,3.4,1.9,6.1,1.9c1.4,0,2.8-0.2,4.2-0.5C201.4,57.4,201.5,57.2,201.5,57"/>
<path fill="#B61F29" d="M182.9,53.7c0.5-0.9,0.7-1.9,0.7-3c0-1.1-0.1-1.9-0.4-2.7c-0.3-0.7-0.6-1.3-1.1-1.8c-0.5-0.5-1-0.9-1.7-1.3
	c-0.7-0.3-1.4-0.6-2.2-0.9l-2.5-0.7c-0.7-0.2-1.3-0.5-1.7-0.7c-0.4-0.3-0.6-0.7-0.6-1.4c0-0.7,0.3-1.2,0.8-1.5
	c0.6-0.3,1.3-0.5,2.3-0.5c0.9,0,1.8,0.1,2.7,0.3c0.8,0.2,1.6,0.5,2.3,0.8c0.3-0.6,0.6-1.3,0.8-2.1c0.2-0.8,0.4-1.6,0.4-2.4
	c-1.1-0.4-2.3-0.7-3.4-0.9c-1.1-0.2-2.2-0.3-3.4-0.3c-2.7,0-4.9,0.6-6.5,1.9c-1.6,1.3-2.4,3-2.4,5.2c0,1.8,0.5,3.2,1.4,4.1
	c0.9,0.9,2.2,1.6,3.8,2.1l2.7,0.8c0.8,0.2,1.4,0.5,1.8,0.8c0.4,0.3,0.6,0.8,0.6,1.5c0,0.5-0.1,0.9-0.4,1.2c-0.3,0.3-0.6,0.6-1,0.7
	c-0.4,0.2-0.9,0.3-1.3,0.4c-0.5,0.1-0.9,0.1-1.3,0.1c-0.9,0-1.8-0.1-2.7-0.3c-0.9-0.2-1.8-0.5-2.7-0.9c-0.4,0.8-0.6,1.5-0.9,2.3
	c-0.2,0.8-0.4,1.6-0.4,2.4c0.6,0.2,1.2,0.4,1.7,0.6c0.5,0.1,1.1,0.3,1.6,0.4c0.5,0.1,1.1,0.2,1.7,0.2c0.6,0,1.2,0.1,1.9,0.1
	c1.5,0,2.9-0.2,4.2-0.6c1.2-0.4,2.3-0.9,3.1-1.6C181.7,55.5,182.4,54.6,182.9,53.7"/>
<path fill="#B61F29" d="M158,57.9c1.5-0.3,2.8-0.6,3.7-0.9V35.2c-1.1-0.2-2.1-0.3-3.1-0.3c-1,0-2,0.1-3.1,0.3v17.7
	c-0.7,0.2-1.6,0.3-2.7,0.3c-0.8,0-1.5-0.1-2.1-0.3c-0.6-0.2-1.1-0.5-1.5-1c-0.4-0.5-0.7-1.1-0.9-1.8c-0.2-0.8-0.3-1.8-0.3-3v-12
	c-1.1-0.2-2.1-0.3-3.1-0.3c-1,0-2.1,0.1-3.1,0.3v12.2c0,2.4,0.3,4.4,0.9,5.8c0.6,1.5,1.4,2.6,2.5,3.3c1,0.8,2.2,1.3,3.6,1.5
	c1.4,0.2,2.8,0.4,4.3,0.4C154.9,58.4,156.5,58.2,158,57.9"/>
<path fill="#B61F29" d="M138.9,57.7c0.1-0.2,0.1-0.4,0.1-0.6v-0.6c0-1.1-0.2-2.3-0.5-3.5c-0.3,0.1-0.5,0.1-0.8,0.1
	c-0.3,0-0.5,0-0.8,0c-0.5,0-1-0.1-1.3-0.2c-0.4-0.1-0.6-0.3-0.9-0.6c-0.2-0.3-0.4-0.7-0.5-1.3c-0.1-0.6-0.2-1.3-0.2-2.2v-23
	c-1.1-0.2-2.1-0.3-3.1-0.3c-1,0-2.1,0.1-3.1,0.3v24.4c0,2.8,0.7,4.8,2,6.1c1.4,1.2,3.2,1.9,5.4,1.9c0.6,0,1.2,0,1.8-0.1
	C137.8,57.9,138.4,57.8,138.9,57.7"/>
<path fill="#B61F29" d="M113.5,51.7c-1-1.1-1.5-2.8-1.5-5.2c0-2.2,0.5-3.9,1.4-5.1c0.9-1.2,2.3-1.8,4.1-1.8c0.8,0,1.6,0.1,2.3,0.2
	c0.7,0.1,1.4,0.3,2.3,0.6c0.4-0.8,0.7-1.6,0.8-2.4c0.2-0.8,0.3-1.6,0.3-2.3c-0.6-0.2-1.2-0.4-1.7-0.6c-0.5-0.1-1-0.3-1.5-0.4
	c-0.5-0.1-1-0.1-1.6-0.2c-0.5,0-1.1,0-1.8,0c-1.8,0-3.4,0.3-4.8,0.9c-1.4,0.6-2.5,1.5-3.4,2.5c-0.9,1.1-1.6,2.3-2.1,3.8
	c-0.5,1.4-0.7,3-0.7,4.6c0,1.7,0.2,3.3,0.7,4.7c0.5,1.4,1.2,2.7,2.1,3.7c0.9,1.1,2.1,1.9,3.5,2.5c1.4,0.6,3.1,0.9,5,0.9
	c1.1,0,2.2-0.1,3.2-0.2c1-0.1,2.1-0.4,3.3-0.9c0-1.1-0.1-2-0.4-2.7c-0.2-0.8-0.5-1.5-0.9-2c-0.5,0.2-0.9,0.3-1.3,0.4
	c-0.4,0.1-0.7,0.2-1.1,0.3c-0.4,0.1-0.7,0.1-1.1,0.1c-0.4,0-0.8,0-1.2,0C115.8,53.3,114.5,52.8,113.5,51.7"/>
<path fill="#B61F29" d="M99.9,62.2c0-1.9,0-3.8-0.1-5.7c-0.6,0.4-1.3,0.7-2.1,0.9c-1.6,0.6-3.4,0.9-5.4,0.9c-0.6,0-1.3,0-2-0.1
	c-0.7-0.1-1.4-0.1-2.2-0.2c-0.7-0.1-1.4-0.2-2.1-0.4c-0.7-0.2-1.3-0.3-1.8-0.5V25.8c1.1-0.2,2.1-0.3,3.1-0.3c1,0,2.1,0.1,3.1,0.3
	v11.6c0.4-0.8,1.2-1.4,2.2-2c1-0.5,2.2-0.8,3.5-0.8h0.2c-2.2-7.5-5.3-14.7-9.6-22c-1.3-2.1-2.9-3-5.4-3.1
	c-18.1-0.1-33.9,4.2-49.6,13.3c-2.1,1.3-3,2.9-3.1,5.4c-0.1,18.1,4.2,33.9,13.3,49.6c1.3,2.1,2.9,3,5.4,3.1
	c18.1,0.1,33.9-4.2,49.6-13.3C98.8,66.3,99.8,64.7,99.9,62.2 M52.2,28.4c0,0.4,0,0.9,0,1.3c0,0.4-0.1,0.9-0.2,1.5
	c-0.5,0.1-1.1,0.2-1.7,0.3c-0.6,0-1.1,0.1-1.5,0.1c-0.4,0-0.9,0-1.5-0.1c-0.6,0-1.1-0.1-1.7-0.3c-0.1-0.6-0.2-1.1-0.2-1.5
	c0-0.4,0-0.8,0-1.3c0-0.5,0-0.9,0-1.3c0-0.4,0.1-0.9,0.2-1.5c0.6-0.1,1.1-0.2,1.7-0.3c0.6-0.1,1.1-0.1,1.5-0.1c0.4,0,0.9,0,1.5,0.1
	c0.6,0.1,1.1,0.2,1.7,0.3c0.1,0.6,0.2,1.1,0.2,1.5C52.2,27.5,52.2,28,52.2,28.4 M52.6,58.3c0,2.8-0.7,4.8-2.1,6.1
	c-1.4,1.2-3.4,1.9-6.1,1.9c-0.7,0-1.5,0-2.2-0.1c-0.8-0.1-1.5-0.2-2.1-0.4c0-0.8,0.1-1.6,0.2-2.4c0.1-0.7,0.3-1.5,0.6-2.1
	c0.3,0.1,0.6,0.1,1.1,0.2c0.4,0.1,0.8,0.1,1.2,0.1c0.5,0,0.9-0.1,1.3-0.2c0.4-0.1,0.8-0.3,1.1-0.6c0.3-0.3,0.5-0.7,0.7-1.3
	c0.2-0.6,0.3-1.3,0.3-2.2V39.9h-3c-0.1-0.4-0.2-0.8-0.2-1.2c0-0.4-0.1-0.8-0.1-1.2c0-0.8,0.1-1.6,0.3-2.3h9V58.3z M79.3,46.6
	c0,1.7-0.2,3.2-0.7,4.6c-0.4,1.4-1.1,2.7-2,3.7c-0.9,1.1-2,1.9-3.4,2.5c-1.4,0.6-3,0.9-4.8,0.9c-1.8,0-3.4-0.3-4.8-0.9
	c-1.4-0.6-2.5-1.4-3.4-2.5c-0.9-1.1-1.6-2.3-2-3.7c-0.5-1.4-0.7-3-0.7-4.6c0-1.7,0.2-3.2,0.7-4.7c0.5-1.5,1.1-2.7,2-3.8
	c0.9-1.1,2-1.9,3.4-2.5c1.4-0.6,3-0.9,4.8-0.9c1.8,0,3.4,0.3,4.8,0.9c1.4,0.6,2.5,1.5,3.4,2.5c0.9,1.1,1.6,2.3,2,3.8
	C79.1,43.3,79.3,44.9,79.3,46.6 M71.9,51.8c0.7-1.2,1.1-3,1.1-5.2c0-2.3-0.4-4-1.1-5.2c-0.7-1.2-1.9-1.8-3.5-1.8
	c-1.6,0-2.8,0.6-3.5,1.8c-0.7,1.2-1.1,3-1.1,5.2c0,2.3,0.4,4,1.1,5.2c0.7,1.2,1.9,1.8,3.5,1.8C70,53.6,71.2,53,71.9,51.8 M97.1,51.5
	c1.1-1.1,1.6-2.9,1.6-5.2l0-0.1v0c0-1.7-0.3-3.1-0.7-4.2l0,0c-0.1-0.2-0.2-0.3-0.2-0.5l0,0l0,0c-0.7-1.1-1.8-1.6-3.4-1.6
	c-1.2,0-2.1,0.4-2.9,1.2c-0.7,0.8-1.1,2-1.1,3.7v8.2c0.4,0.1,0.7,0.2,1.1,0.2c0.4,0,0.8,0,1.2,0C94.5,53.2,96,52.6,97.1,51.5"/>
<path fill="#ACAFB2" d="M28.2,20.5C39.4,14,50.6,9.8,62.5,7.6c-1-1.5-2.4-2.2-4.3-2.3c-15-0.1-28.1,3.4-41.1,11
	c-1.7,1.1-2.5,2.4-2.6,4.4c-0.1,15,3.5,28.1,11,41.1c1.1,1.7,2.4,2.5,4.4,2.6c0.5,0,0.9,0,1.4,0c-4.5-12-6.7-24.4-6.6-38
	C24.9,23.7,25.9,21.9,28.2,20.5"/>
<path fill="#DADADA" d="M14.3,14.3c7.9-4.6,15.8-7.8,24-9.8L38.1,4c-0.8-1.3-1.8-1.9-3.4-1.9c-11.3,0-21.2,2.6-31,8.3
	c-1.3,0.8-1.9,1.8-1.9,3.4c0,11.3,2.6,21.2,8.3,31c0.8,1.3,1.8,1.9,3.4,1.9c0.7,0,1.4,0,2.1,0C12.8,38,11.4,29,11.5,19.2
	C11.5,17,12.4,15.5,14.3,14.3"/>
<g>
</g>
<g>
</g>
<g>
</g>
<g>
</g>
<g>
</g>
<g>
</g>
</svg>
